<svg xmlns="http://www.w3.org/2000/svg" viewBox="0 0 512 512" role="img" aria-label="Lely Sublimação">
  <defs>
    <linearGradient id="bg" x1="0" x2="1" y1="0" y2="1">
      <stop offset="0" stop-color="#FBF8FF"/>
      <stop offset="1" stop-color="#E9D5FF"/>
    </linearGradient>
    <linearGradient id="wing" x1="0" x2="1" y1="0" y2="1">
      <stop offset="0" stop-color="#C084FC"/>
      <stop offset="1" stop-color="#7C3AED"/>
    </linearGradient>
  </defs>
  <rect width="512" height="512" rx="112" fill="url(#bg)"/>
  <circle cx="256" cy="256" r="174" fill="#FFFFFF" stroke="#D8B4FE" stroke-width="18"/>
  <path d="M248 194c-38-74-116-96-146-48-26 42 8 107 92 119-64 32-77 91-39 117 45 31 104-14 111-96" fill="url(#wing)" opacity="0.95"/>
  <path d="M264 194c38-74 116-96 146-48 26 42-8 107-92 119 64 32 77 91 39 117-45 31-104-14-111-96" fill="url(#wing)" opacity="0.82"/>
  <path d="M256 194c18 24 18 99 0 139" fill="none" stroke="#4C1D95" stroke-width="18" stroke-linecap="round"/>
  <path d="M224 168c-22-34-50-46-74-35M288 168c22-34 50-46 74-35" fill="none" stroke="#4C1D95" stroke-width="13" stroke-linecap="round"/>
  <path d="M147 359l152-152 38 38-152 152-54 16 16-54Z" fill="#F0ABFC" stroke="#4C1D95" stroke-width="10" stroke-linejoin="round"/>
  <path d="M316 190l30-30 38 38-30 30Z" fill="#FDE68A" stroke="#4C1D95" stroke-width="10" stroke-linejoin="round"/>
</svg>
